<svg xmlns="http://www.w3.org/2000/svg" width="32" height="32" viewBox="0 0 32 32" role="img"  aria-labelledby="bring-forward-title" style="width: 100%; height: auto;"><title id="bring-forward-title">Bring Forward</title><rect x="10" y="30" width="2" height="2"/><rect x="10" y="26" width="2" height="2"/><rect x="26" y="10" width="2" height="2"/><rect x="30" y="10" width="2" height="2"/><path d="M32,28H30V26h2v2Zm0-4H30V22h2v2Zm0-4H30V18h2v2Zm0-4H30V14h2v2Z"/><rect x="30" y="30" width="2" height="2"/><path d="M28,32H26V30h2v2Zm-4,0H22V30h2v2Zm-4,0H18V30h2v2Zm-4,0H14V30h2v2Z"/><path d="M24,2V24H2V2H24m2-2H0V26H26V0h0Z"/></svg>
