<svg xmlns="http://www.w3.org/2000/svg" width="32" height="32" viewBox="0 0 32 32" role="img"  aria-labelledby="bring-to-front-title" style="width: 100%; height: auto;"><title id="bring-to-front-title">Bring to Front</title><path d="M24.5,7.5v17H7.5V7.5h17m2-2H5.5v21h21V5.5h0Z"/><rect x="30" y="30" width="2" height="2"/><rect x="15.778" y="30" width="1.777" height="2"/><rect x="19.334" y="30" width="1.777" height="2"/><rect x="26.445" y="30" width="1.777" height="2"/><rect x="22.89" y="30" width="1.777" height="2"/><rect x="12" y="30" width="2" height="2"/><rect x="12" y="26.5" width="2" height="1.723"/><rect x="26.5" y="12" width="1.722" height="2"/><rect x="30" y="12" width="2" height="2"/><rect x="30" y="15.778" width="2" height="1.778"/><rect x="30" y="19.333" width="2" height="1.778"/><rect x="30" y="26.444" width="2" height="1.778"/><rect x="30" y="22.889" width="2" height="1.778"/><rect x="3.778" y="18" width="1.722" height="2"/><rect y="18" width="2" height="2"/><rect y="10.89" width="2" height="1.777"/><rect y="3.778" width="2" height="1.777"/><rect y="7.334" width="2" height="1.777"/><rect y="14.445" width="2" height="1.777"/><rect width="2" height="2"/><rect x="10.889" width="1.777" height="2"/><rect x="14.444" width="1.777" height="2"/><rect x="3.777" width="1.777" height="2"/><rect x="7.333" width="1.777" height="2"/><rect x="18" width="2" height="2"/><rect x="18" y="3.778" width="2" height="1.722"/></svg>
