<svg xmlns="http://www.w3.org/2000/svg" width="20" height="22" viewBox="0 0 20 22" role="img"><path d="M18.945,7.448l-2.51,2.487,1.16,1.16a0.357,0.357,0,0,1,0,.514L15.253,13.95a0.356,0.356,0,0,1-.513,0l-1.171-1.171L6.843,19.5a1.4,1.4,0,0,1-1,.413H3.574L0.719,21.345l-0.714-.714,1.428-2.855V15.511a1.411,1.411,0,0,1,.413-1L8.572,7.782,7.4,6.611a0.356,0.356,0,0,1,0-.513L9.743,3.755a0.356,0.356,0,0,1,.513,0l1.16,1.16L13.9,2.406A3.565,3.565,0,1,1,18.945,7.448Zm-6.8,3.9L10,9.21,3.574,15.634v2.142H5.716Z" style="fill:inherit"/></svg>
