<svg xmlns="http://www.w3.org/2000/svg" width="32" height="32" viewBox="0 0 32 32" role="img"  aria-labelledby="send-to-back-title" style="width: 100%; height: auto;"><title id="send-to-back-title">Send to Back</title><rect x="30" y="30" width="2" height="2"/><path d="M28.223,32H26.445V30h1.777v2Zm-3.556,0H22.89V30h1.777v2Zm-3.556,0H19.334V30h1.777v2Zm-3.556,0H15.778V30h1.777v2Z"/><rect x="12" y="30" width="2" height="2"/><rect x="12" y="26.445" width="2" height="1.777"/><rect x="12" y="22.89" width="2" height="1.777"/><rect x="26.444" y="12" width="1.777" height="2"/><rect x="22.889" y="12" width="1.777" height="2"/><rect x="30" y="12" width="2" height="2"/><path d="M32,28.223H30V26.444h2v1.778Zm0-3.556H30V22.889h2v1.778Zm0-3.556H30V19.333h2v1.778Zm0-3.556H30V15.778h2v1.778Z"/><rect x="18" y="18" width="2" height="2"/><path d="M16.223,20H14.445V18h1.777v2Zm-3.556,0H10.89V18h1.777v2ZM9.111,20H7.334V18H9.111v2ZM5.556,20H3.778V18H5.556v2Z"/><rect y="18" width="2" height="2"/><path d="M2,16.223H0V14.445H2v1.777Zm0-3.556H0V10.89H2v1.777ZM2,9.111H0V7.334H2V9.111ZM2,5.556H0V3.778H2V5.556Z"/><rect width="2" height="2"/><path d="M16.222,2H14.444V0h1.777V2ZM12.666,2H10.889V0h1.777V2ZM9.11,2H7.333V0H9.11V2ZM5.555,2H3.777V0H5.555V2Z"/><rect x="18" width="2" height="2"/><path d="M20,16.223H18V14.444h2v1.778Zm0-3.556H18V10.889h2v1.778Zm0-3.556H18V7.333h2V9.111Zm0-3.556H18V3.778h2V5.556Z"/><rect x="7.5" y="20" width="4.5" height="4.5" style="fill:none"/><rect x="20" y="7.5" width="4.5" height="4.5" style="fill:none"/><polygon points="7.5 24.5 7.5 20 5.5 20 5.5 26.5 12 26.5 12 24.5 7.5 24.5"/><polygon points="24.5 7.5 24.5 12 26.5 12 26.5 5.5 20 5.5 20 7.5 24.5 7.5"/></svg>
