<svg xmlns="http://www.w3.org/2000/svg" width="32" height="32" viewBox="0 0 32 32" role="img"  aria-labelledby="send-backward-title" style="width: 100%; height: auto;"><title id="send-backward-title">Send Backward</title><rect y="24" width="2" height="2"/><path d="M0,22V20H2v2H0Zm0-4V16H2v2H0Zm0-4V12H2v2H0Zm0-4V8H2v2H0ZM0,6V4H2V6H0Z"/><rect width="2" height="2"/><path d="M4,2V0H6V2H4ZM8,2V0h2V2H8Zm4,0V0h2V2H12Zm4,0V0h2V2H16Zm4,0V0h2V2H20Z"/><rect x="24" width="2" height="2"/><path d="M24,22V20h2v2H24Zm0-4V16h2v2H24Zm0-4V12h2v2H24Zm0-4V8h2v2H24Zm0-4V4h2V6H24Z"/><rect x="24" y="24" width="2" height="2"/><path d="M4,26V24H6v2H4Zm4,0V24h2v2H8Zm4,0V24h2v2H12Zm4,0V24h2v2H16Zm4,0V24h2v2H20Z"/><polygon points="26 10 26 12 30 12 30 30 12 30 12 26 10 26 10 32 32 32 32 10 26 10"/></svg>
