<svg xmlns="http://www.w3.org/2000/svg" width="28" height="22" viewBox="0 0 28 22" role="img"><path d="M20.485,7.771C20.5,7.927,20.5,8.084,20.5,8.24A10.256,10.256,0,0,1,4.713,16.873a7.5,7.5,0,0,0,.87.045,7.211,7.211,0,0,0,4.473-1.54,3.607,3.607,0,0,1-3.368-2.5,4.559,4.559,0,0,0,.68.056,3.815,3.815,0,0,0,.949-0.123,3.6,3.6,0,0,1-2.89-3.535V9.233a3.628,3.628,0,0,0,1.628.457A3.61,3.61,0,0,1,5.939,4.871a10.242,10.242,0,0,0,7.43,3.77,4,4,0,0,1-.09-0.825,3.606,3.606,0,0,1,6.235-2.465,7.092,7.092,0,0,0,2.286-.87,3.587,3.587,0,0,1-1.584,1.985,7.213,7.213,0,0,0,2.075-.558A7.765,7.765,0,0,1,20.485,7.771Z" style="fill:inherit"/></svg>
