<svg xmlns="http://www.w3.org/2000/svg" width="28" height="22" viewBox="0 0 28 22" role="img"><path d="M16.213,19.483a0.427,0.427,0,0,1-.58-0.413V16.716a2.02,2.02,0,0,0-.58-1.584c1.908-.212,3.916-0.937,3.916-4.227a3.3,3.3,0,0,0-.881-2.3A3.1,3.1,0,0,0,18,6.332c-0.714-.223-2.354.881-2.354,0.881a8.052,8.052,0,0,0-4.283,0S9.722,6.109,9,6.332a3.138,3.138,0,0,0-.078,2.275,3.3,3.3,0,0,0-.881,2.3c0,3.279,2,4.015,3.9,4.227a1.848,1.848,0,0,0-.547,1.148,1.806,1.806,0,0,1-2.487-.714,1.8,1.8,0,0,0-1.315-.881c-0.837-.011-0.057.524-0.057,0.524a2.7,2.7,0,0,1,.948,1.249c0.5,1.528,2.89,1.016,2.89,1.016,0,0.714.011,1.394,0.011,1.595a0.436,0.436,0,0,1-.591.413A8.566,8.566,0,1,1,16.213,19.483Z" style="fill:inherit"/></svg>
