<svg xmlns="http://www.w3.org/2000/svg" width="28" height="22" viewBox="0 0 28 22" role="img"><title>Underline</title><path d="M5.45,3.8L5.416,2.819c0.145-.011.29-0.011,0.446-0.011,0.39,0,.814.011,1.249,0.044C8.16,2.908,8.785,2.93,8.963,2.93q0.954,0,1.874-.034c0.6-.022,1.149-0.044,1.628-0.056s0.792-.011.959-0.022l-0.011.156,0.022,0.714v0.1a9.287,9.287,0,0,1-1.383.1,1.065,1.065,0,0,0-.881.279,3.637,3.637,0,0,0-.145,1.472c0,0.268.011,0.479,0.011,0.647l0.011,2.554,0.156,3.123a4.962,4.962,0,0,0,.569,2.252,2.7,2.7,0,0,0,1.071,1.026,4.151,4.151,0,0,0,1.974.524,6.927,6.927,0,0,0,2.13-.312,3.457,3.457,0,0,0,1.1-.568,2.773,2.773,0,0,0,.726-0.714A4.807,4.807,0,0,0,19.37,12.9a10.142,10.142,0,0,0,.233-2.554c0-2-.145-2.052-0.312-4.573l-0.045-.658a1.691,1.691,0,0,0-.268-0.981,1.115,1.115,0,0,0-.859-0.379l-1.115.022-0.156-.033,0.022-.959h0.937L20.095,2.9a13.971,13.971,0,0,0,2.187-.111l0.2,0.022a4.367,4.367,0,0,1,.067.569,2.249,2.249,0,0,1-.045.346,4.317,4.317,0,0,1-.937.145,3.049,3.049,0,0,0-.882.189,0.618,0.618,0,0,0-.167.458c0,0.145.022,0.368,0.034,0.647A41.1,41.1,0,0,1,20.8,9.578a16.33,16.33,0,0,1-.167,3.39,4.6,4.6,0,0,1-.458,1.361A5.124,5.124,0,0,1,18.924,15.7a6.394,6.394,0,0,1-2.03.992,9.9,9.9,0,0,1-2.844.368,8.7,8.7,0,0,1-3.168-.513,4.69,4.69,0,0,1-2-1.361,4.863,4.863,0,0,1-.926-2.175,14.478,14.478,0,0,1-.178-2.643V6.656A7.418,7.418,0,0,0,7.591,4.28a2.213,2.213,0,0,0-1.64-.435A3.017,3.017,0,0,1,5.45,3.8Zm17.1,15.047a0.353,0.353,0,0,0-.357-0.357H5.773a0.353,0.353,0,0,0-.357.357V19.56a0.353,0.353,0,0,0,.357.357H22.191a0.353,0.353,0,0,0,.357-0.357V18.847Z" style="fill:inherit"/></svg>
